<svg xmlns="http://www.w3.org/2000/svg" enable-background="new 0 0 32 32" viewBox="0 0 32 32" id="mysql"><path fill="#E3F8FA" d="M26,32H6c-3.314,0-6-2.686-6-6V6c0-3.314,2.686-6,6-6h20c3.314,0,6,2.686,6,6v20C32,29.314,29.314,32,26,32z"></path><path fill="#E3F8FA" d="M26,32H6c-3.314,0-6-2.686-6-6V6c0-3.314,2.686-6,6-6h20c3.314,0,6,2.686,6,6v20C32,29.314,29.314,32,26,32z"></path><g><path fill="#26C6DA" d="M12.354,21.085c-0.097,0-0.184-0.006-0.257-0.017v0.323c0.151,0.06,0.275,0.09,0.377,0.09c0.382,0,0.734-0.234,1.055-0.702c0.411-0.607,0.743-1.581,0.995-2.919h-0.587c-0.105,0.822-0.29,1.583-0.557,2.28c0.019-0.139-0.027-0.384-0.137-0.735L12.76,17.86h-0.607l0.676,2.066c0.102,0.31,0.153,0.516,0.153,0.618c0,0.146-0.065,0.278-0.197,0.396C12.677,21.036,12.533,21.085,12.354,21.085z"></path><polygon fill="#8CE1EB" points="20.988 16.911 20.988 20.531 22.742 20.531 22.742 20.086 21.578 20.086 21.578 16.911"></polygon><path fill="#26C6DA" d="M8.693,17.644H8.7l0.933,2.887h0.47l0.94-2.887h0.005c0.098,0.903,0.16,1.864,0.18,2.887h0.618h0.002c-0.029-1.093-0.124-2.301-0.285-3.62h-0.73l-0.898,2.66H9.93l-0.89-2.66H8.273C8.128,18.037,8.036,19.244,8,20.531h0.563C8.581,19.472,8.624,18.51,8.693,17.644z"></path><path fill="#8CE1EB" d="M20.453 18.654c0-1.198-.479-1.797-1.437-1.797-.469 0-.836.152-1.1.456-.287.332-.431.822-.431 1.469 0 .636.127 1.104.383 1.401.233.268.585.403 1.055.403.176 0 .337-.022.483-.064l.883.505.24-.407h-.002l-.677-.327c.06-.05.118-.103.17-.164C20.31 19.797 20.453 19.305 20.453 18.654zM18.984 20.137c-.297 0-.513-.109-.652-.327l.001-.003c-.15-.236-.225-.615-.225-1.136 0-.912.283-1.368.847-1.368.295 0 .513.109.651.327.149.237.224.613.224 1.128C19.831 19.676 19.548 20.137 18.984 20.137zM16.8 18.766c0 0-.529-.298-.791-.439-.288-.157-.444-.342-.444-.556 0-.14.063-.254.165-.343.101-.09.247-.135.436-.135.233 0 .469.051.709.151l.142-.312c-.28-.179-.592-.268-.933-.268-.333 0-.603.09-.813.272-.209.18-.313.416-.313.71 0 .354.14.569.421.77 0 0 .517.291.775.43.279.154.432.337.432.553 0 .171-.075.306-.2.403-.127.096-.301.144-.522.144-.238 0-.501-.071-.793-.215l-.158.311c.339.225.687.337 1.049.337.387 0 .693-.098.923-.295.229-.196.344-.449.344-.757l.004.002C17.232 19.178 17.089 18.965 16.8 18.766zM18.937 11.895c-.077 0-.129.009-.183.022v.009h.009c.036.068.097.118.143.179.036.07.067.14.103.209l.009-.01c.063-.043.093-.113.093-.218-.027-.031-.031-.062-.053-.092-.027-.044-.084-.065-.12-.1L18.937 11.895z"></path><path fill="#26C6DA" d="M23.797,16.85c-0.129-0.17-0.29-0.319-0.463-0.442c-0.143-0.096-0.455-0.229-0.513-0.389l-0.009-0.009c0.097-0.009,0.213-0.043,0.307-0.069c0.151-0.039,0.29-0.031,0.447-0.069c0.071-0.018,0.142-0.039,0.213-0.062V15.77c-0.08-0.079-0.14-0.185-0.223-0.259c-0.227-0.193-0.478-0.381-0.736-0.539c-0.14-0.088-0.317-0.144-0.465-0.219c-0.053-0.026-0.143-0.039-0.173-0.083c-0.08-0.096-0.127-0.223-0.183-0.336c-0.128-0.241-0.253-0.507-0.365-0.761c-0.08-0.171-0.129-0.342-0.227-0.499c-0.46-0.744-0.958-1.195-1.724-1.636c-0.165-0.092-0.362-0.131-0.571-0.179c-0.111-0.005-0.223-0.013-0.333-0.018c-0.073-0.031-0.144-0.114-0.207-0.154c-0.253-0.157-0.909-0.497-1.096-0.047c-0.12,0.284,0.178,0.564,0.281,0.708c0.077,0.1,0.173,0.215,0.227,0.327c0.031,0.076,0.04,0.154,0.071,0.233c0.071,0.192,0.138,0.407,0.231,0.587c0.049,0.092,0.102,0.188,0.165,0.27c0.036,0.048,0.097,0.07,0.111,0.149c-0.063,0.089-0.067,0.219-0.103,0.327c-0.16,0.496-0.097,1.108,0.129,1.473c0.071,0.109,0.241,0.35,0.469,0.257c0.2-0.079,0.156-0.327,0.213-0.547c0.013-0.052,0.005-0.087,0.032-0.122v0.01c0.063,0.123,0.125,0.24,0.183,0.363c0.137,0.215,0.377,0.437,0.578,0.586c0.107,0.079,0.191,0.215,0.325,0.263v-0.013h-0.01c-0.029-0.038-0.067-0.056-0.103-0.087c-0.08-0.078-0.17-0.175-0.233-0.262c-0.187-0.247-0.351-0.517-0.498-0.797c-0.073-0.137-0.135-0.285-0.193-0.421c-0.027-0.052-0.027-0.131-0.071-0.157c-0.067,0.096-0.165,0.179-0.213,0.297c-0.085,0.188-0.093,0.42-0.125,0.661c-0.018,0.004-0.009,0-0.018,0.009c-0.143-0.034-0.191-0.179-0.245-0.301c-0.133-0.311-0.155-0.81-0.04-1.168c0.031-0.092,0.165-0.381,0.111-0.469c-0.028-0.083-0.116-0.131-0.165-0.198c-0.058-0.081-0.12-0.187-0.16-0.279c-0.107-0.245-0.16-0.516-0.276-0.761c-0.053-0.113-0.147-0.232-0.223-0.336c-0.085-0.118-0.178-0.201-0.245-0.34c-0.022-0.048-0.053-0.127-0.018-0.179c0.009-0.035,0.028-0.049,0.063-0.059c0.059-0.047,0.223,0.014,0.281,0.041c0.165,0.065,0.303,0.127,0.441,0.219c0.063,0.043,0.13,0.126,0.21,0.148h0.093c0.143,0.031,0.303,0.009,0.437,0.048c0.237,0.075,0.45,0.183,0.641,0.301c0.584,0.364,1.064,0.88,1.39,1.496c0.053,0.101,0.077,0.193,0.125,0.298c0.093,0.216,0.209,0.434,0.303,0.643c0.093,0.206,0.183,0.416,0.317,0.587c0.067,0.092,0.335,0.139,0.455,0.187c0.089,0.039,0.227,0.075,0.307,0.123c0.153,0.092,0.303,0.196,0.447,0.297c0.073,0.05,0.295,0.159,0.309,0.247c-0.357-0.009-0.633,0.026-0.865,0.123c-0.067,0.026-0.173,0.026-0.183,0.109c0.037,0.035,0.042,0.092,0.073,0.14c0.053,0.088,0.145,0.205,0.231,0.266c0.093,0.072,0.187,0.141,0.285,0.203c0.173,0.105,0.37,0.167,0.54,0.272c0.097,0.062,0.195,0.14,0.293,0.205c0.049,0.033,0.08,0.092,0.143,0.113v-0.013c-0.031-0.039-0.04-0.096-0.07-0.14C23.886,16.932,23.841,16.893,23.797,16.85z"></path></g></svg>